<svg xmlns="http://www.w3.org/2000/svg" viewBox="0 0 132.98 296.3"><defs><style>.cls-1{fill:#cfd8dc;}.cls-2{fill:#adbec4;}.cls-3{fill:#105e99;}.cls-4{fill:#ffb878;}.cls-5{fill:#ef6e4b;}.cls-6{fill:#ff8b66;}.cls-7{fill:#db614d;}.cls-8{fill:#0c476b;}.cls-9{fill:#1a4850;}.cls-10{fill:#0d527c;}.cls-11{fill:#f24052;}.cls-12{fill:#b72e48;}.cls-13{fill:#b5c4c9;}</style></defs><title>자산 1</title><g id="레이어_2" data-name="레이어 2"><g id="OBJECTS"><path class="cls-1" d="M35.21,50C23.55,57.26,11.05,80.45,6.8,90.86s-1,28.64,25.42,12.52S35.21,50,35.21,50Z"/><path class="cls-1" d="M103.63,52s26,21.92,29,40.43-13.92,23.81-27.33.91S103.63,52,103.63,52Z"/><path class="cls-1" d="M2.36,294.44a13.36,13.36,0,0,0,.12,1.86H33.93c0-.62,0-1.24,0-1.86a57.59,57.59,0,0,0-3-15.36l-7.86-3.38A12.57,12.57,0,0,1,18.46,284a10.81,10.81,0,0,1-1.8,1.16c-.28.15-.57.29-.87.43a15.73,15.73,0,0,1-2,.74,48.58,48.58,0,0,1-7.55,1.32C2.87,288.21,2.36,292.08,2.36,294.44Z"/><path class="cls-2" d="M2.36,294.44a13.36,13.36,0,0,0,.12,1.86H33.93c0-.62,0-1.24,0-1.86Z"/><path class="cls-2" d="M16.66,285.19,21,286.58,22,285l-3.49-1A10.81,10.81,0,0,1,16.66,285.19Z"/><path class="cls-2" d="M13.78,286.36l2.94,2,1.81-.71-2.74-2A15.73,15.73,0,0,1,13.78,286.36Z"/><path class="cls-1" d="M58.2,294.44a7.64,7.64,0,0,0,.35,1.86h21a8.93,8.93,0,0,0,.59-1.86c2.07-10-11.86-22.29-11.86-22.29l-4.42,5.9s.52,9.43-3.23,11.4A4.77,4.77,0,0,0,58.2,294.44Z"/><path class="cls-2" d="M80.09,294.44H58.2a7.64,7.64,0,0,0,.35,1.86h21A8.93,8.93,0,0,0,80.09,294.44Z"/><path class="cls-2" d="M61.54,288.7s8.83-2,12.85.59v-1.46S67,284.22,61.54,288.7Z"/><path class="cls-2" d="M63.29,286.46s5.64-2.58,11.1,0L73.77,285S67.24,282.52,63.29,286.46Z"/><path class="cls-3" d="M93.18,132.39c0,19.93-2,40.23-2.46,45.38s-5.84,62.66-6.59,84.91c-.38,11.4-4,25.19-4,25.19s-10.86-8.77-17-2.25l-1.54-8.9,2.88-7s-3.08-5.79-.56-10.29,3.3-100.69,3.3-100.69l-4.85-.31L37,269.72v6.34s-3.06,8.08-3.1,13.23L17.46,284,20,276.72l-.67-10.43,4.61-13.6S41,146.31,39.69,134.37Z"/><path class="cls-4" d="M38.88,48.51s11.52-6,28.43-5.65,28.24,4.44,31.24,7.26-4,97.51-4,97.51-30.67,2.09-57-4c0,0,4-32.23,3.33-54.31S38.88,48.51,38.88,48.51Z"/><path class="cls-5" d="M61.06,34.56s1.61,6.61-.84,9.25c0,0,4,6.44,13-.07,0,0-1.72-4.34,0-7.16Z"/><path class="cls-6" d="M78.75,22.7s3.4-3.39,3.82.57c.48,4.59-3.69,6.44-4.5,5S78.75,22.7,78.75,22.7Z"/><path class="cls-6" d="M55,22.94s-3.4-3.39-3.82.57c-.48,4.59,3.69,6.44,4.5,5S55,22.94,55,22.94Z"/><path class="cls-6" d="M67.22,39.33C74.76,39.33,79,34.4,79,19.64,79,12,75.14,7.35,66.69,7.35s-12,4.67-12,12.29C54.7,35.5,59.43,39.33,67.22,39.33Z"/><path class="cls-7" d="M57.19,24.9a1.78,1.78,0,0,0,3.43.6,1.78,1.78,0,0,0-3.43-.6Z"/><path class="cls-7" d="M72.69,25.32a1.79,1.79,0,0,0,3.48-.23,1.79,1.79,0,0,0-3.48.23Z"/><path class="cls-8" d="M59.64,17.12a.36.36,0,0,0,.28-.07,4.29,4.29,0,0,1,3-.59.39.39,0,0,0,.44-.3.38.38,0,0,0-.3-.44,5.05,5.05,0,0,0-3.63.73.39.39,0,0,0-.07.53A.35.35,0,0,0,59.64,17.12Z"/><path class="cls-8" d="M74.06,17.18A.4.4,0,0,0,74.3,17a.37.37,0,0,0,0-.53,5.07,5.07,0,0,0-3.6-.85.39.39,0,0,0-.31.43.38.38,0,0,0,.43.32,4.29,4.29,0,0,1,3,.68A.4.4,0,0,0,74.06,17.18Z"/><path class="cls-9" d="M60.41,21.38c0,.93.43,1.69,1,1.69s.94-.76.94-1.69-.42-1.7-.94-1.7S60.41,20.44,60.41,21.38Z"/><path class="cls-9" d="M70.48,21.38c0,.93.42,1.69.94,1.69s.94-.76.94-1.69-.42-1.7-.94-1.7S70.48,20.44,70.48,21.38Z"/><path class="cls-8" d="M75.66,11s-5.24-.36-16.75-1.19c0,0-4.21,4.39-3.92,15.19,0,0-6.74-19.45,12.94-19.45s10.82,19,10.82,19S79.33,14.61,75.66,11Z"/><path class="cls-7" d="M66.74,26.28l.57-.57-1.49-1.48c1.44-2.05,1.43-6.78,1.43-7h-.8c0,.05,0,5.14-1.47,6.73l-.26.29Z"/><path class="cls-9" d="M71.75,28.74s-7.42.31-11.17-.68a5,5,0,0,0,5.09,5.67C71.75,34,71.75,28.74,71.75,28.74Z"/><path class="cls-10" d="M57.48,12S54.17,9.08,54.7,5.51,62.88-.79,69.55.57c0,0,3.55-1.87,8.28,1.16s7.89,12,3.72,17.61c0,0,1-9.48-4.46-6.27A27,27,0,0,0,57.48,12Z"/><path class="cls-11" d="M76.6,43.48s-7.79,51.61,0,76.53c0,0,26-.86,28.53-1.72s5-54.74-1.5-66.3A44,44,0,0,0,76.6,43.48Z"/><path class="cls-1" d="M130.32,105.45c-2.38,4-10.16,8.51-17,10-3,.65-5.89.7-8-.17,0,0-1.12-11.1-7.52-17.21a7.11,7.11,0,0,1,1.1-2c1.84-2.43,6.43-6.14,17.05-5C131.39,92.68,133.75,99.73,130.32,105.45Z"/><path class="cls-12" d="M85.1,44.13s-4.29,6.27-9.75,9.16a18.28,18.28,0,0,1-.22-2.22c0-.35,0-.74,0-1.16a19.84,19.84,0,0,1,.12-2.24c0-.44.11-.89.2-1.35.55-3,2-6.07,5.32-7.5a5.23,5.23,0,0,1,1.9,1,6.7,6.7,0,0,1,.72.7,7.13,7.13,0,0,1,.92,1.34,6.69,6.69,0,0,1,.45,1A8,8,0,0,1,85.1,44.13Z"/><path class="cls-1" d="M84.73,42.91a42.62,42.62,0,0,1-9.6,8.16c0-.35,0-.74,0-1.16a41.42,41.42,0,0,0,9.18-8A6.69,6.69,0,0,1,84.73,42.91Z"/><path class="cls-1" d="M83.36,40.56a43.14,43.14,0,0,1-8.14,7.11c0-.44.11-.89.2-1.35a42.27,42.27,0,0,0,7.22-6.46A6.7,6.7,0,0,1,83.36,40.56Z"/><path class="cls-12" d="M105.29,121.8c0,.34,0,.68,0,1,0,.88-.15,1.58-.39,1.67-.75.28-27.06,2-27.06,2l-.33-1.74-.18-1L77,122.22l-.19-1L76.6,120c9.46-1.67,28.53-1.72,28.53-1.72s0,.37.07.92c0,.29,0,.63,0,1S105.29,121.26,105.29,121.8Z"/><path class="cls-1" d="M105.25,120.21a212.2,212.2,0,0,0-28.23,2l-.19-1a215.11,215.11,0,0,1,28.37-2C105.21,119.5,105.23,119.84,105.25,120.21Z"/><path class="cls-1" d="M105.29,121.8c0,.34,0,.68,0,1a209.72,209.72,0,0,0-27.78,2l-.18-1A213.84,213.84,0,0,1,105.29,121.8Z"/><path class="cls-1" d="M91,62.82l-4.07.49L82.61,78.83h3.27l1.67-5.4,3.75-.17,2.4,4.6,4.08-.76Zm-2.9,8,.83-4.3L91,70.82Z"/><path class="cls-11" d="M57.89,43.48s3.93,51.75-3.69,76.74c0,0-21.4-.86-23.42-1.73S29.3,61.6,35.21,50A39.36,39.36,0,0,1,57.89,43.48Z"/><path class="cls-12" d="M48.78,44.13s4.29,6.27,9.75,9.16a18.28,18.28,0,0,0,.22-2.22c0-.35,0-.74,0-1.16a19.84,19.84,0,0,0-.12-2.24c0-.44-.11-.89-.2-1.35-.55-3-2-6.07-5.32-7.5a5.23,5.23,0,0,0-1.9,1,6.7,6.7,0,0,0-.72.7,7.13,7.13,0,0,0-.92,1.34,6.69,6.69,0,0,0-.45,1A8,8,0,0,0,48.78,44.13Z"/><path class="cls-1" d="M49.15,42.91a42.62,42.62,0,0,0,9.6,8.16c0-.35,0-.74,0-1.16a41.42,41.42,0,0,1-9.18-8A6.69,6.69,0,0,0,49.15,42.91Z"/><path class="cls-1" d="M50.52,40.56a43.14,43.14,0,0,0,8.14,7.11c0-.44-.11-.89-.2-1.35a42.27,42.27,0,0,1-7.22-6.46A6.7,6.7,0,0,0,50.52,40.56Z"/><path class="cls-12" d="M30.48,122c0,.34,0,.69,0,1,0,.88,0,1.58.24,1.67.6.28,22.19,2,22.19,2l.36-1.75.19-1,.32-1.56.2-1,.25-1.23c-7.71-1.68-23.42-1.73-23.42-1.73l-.1.93c0,.29-.06.63-.09,1S30.5,121.47,30.48,122Z"/><path class="cls-1" d="M30.59,120.42a142.89,142.89,0,0,1,23.16,2l.2-1a144.68,144.68,0,0,0-23.27-2C30.66,119.71,30.62,120.05,30.59,120.42Z"/><path class="cls-1" d="M30.48,122c0,.34,0,.69,0,1a141.21,141.21,0,0,1,22.79,2l.19-1A143.67,143.67,0,0,0,30.48,122Z"/><path class="cls-1" d="M16.72,56.63c6.33,1.63,10.16,33.85,6.5,41.41s-8.94,12.46-18,5.34-4.87-43.95,1-46.45C9,55.76,16.72,56.63,16.72,56.63Z"/><path class="cls-12" d="M16.81,54.93a11.92,11.92,0,0,1-.11,1.79A5.55,5.55,0,0,1,16.39,58c-.84,2.17-2.91,2.26-5.84,2.42-2.48.13-3.82-.58-4.25-2.21a5.07,5.07,0,0,1-.16-1.66,9.11,9.11,0,0,1,.12-1.32c0-.38.12-.77.2-1.19.16-.73.36-1.52.61-2.38.5-1.72,5.56-2.05,5.56-2.05,1.53-.14,3.67.18,3.9,1.92.11.84.19,1.59.23,2.27C16.79,54.21,16.81,54.58,16.81,54.93Z"/><path class="cls-6" d="M3.85,38.46A23.78,23.78,0,0,1,6,42.91c.56,3,.88,4.62,1.92,6s.49,3.77.49,3.77,4,2.08,7.44-.49c0,0-.35-2.38,0-3.06.7-1.35,2.94-2.08,3.71-4.81a21.56,21.56,0,0,1,3.06-5.79s-.65-1.42-1.85-.56-2,3.07-2.63,3.29a1.92,1.92,0,0,1-.4.09h0A1.67,1.67,0,0,1,16.35,41a.19.19,0,0,1-.07-.06c-1.1-1.28-1.36-5-1.31-6.71.06-2.33,0-5.55-1.45-5s-.12,1.85-1.22,7l-.53.06c-.1.37-1.08-3.12-1.31-6.39-.17-2.25-1.64-1.42-2-.71s.17,2.95.27,4.58c.08,1.08.17,2.2.22,2.87L8.36,37c-2.24-3.91-1.48-5.53-2.79-5.6s-.83,3.22-.13,4.47a12.19,12.19,0,0,1,.82,2.79c-2.3-2.66-2-4-3.1-3.88S3.05,37.55,3.85,38.46Z"/><path class="cls-5" d="M13.78,44.58c.78-2.14,3.55-3.12,3.9-3.23A1.67,1.67,0,0,1,16.35,41,3.89,3.89,0,0,0,13.78,44.58Z"/><path class="cls-1" d="M16.81,54.93c-2,1-5.55,1.15-7.65,1.15H8.53a3.55,3.55,0,0,1-2.27-.83c0-.38.12-.77.2-1.19a2.72,2.72,0,0,0,2.09,1c3,0,6.86-.26,8.21-1.26C16.79,54.21,16.81,54.58,16.81,54.93Z"/><path class="cls-1" d="M16.7,56.72A5.55,5.55,0,0,1,16.39,58c-2,.84-5.3,1-7.27,1H8.49a3.52,3.52,0,0,1-2.19-.76,5.07,5.07,0,0,1-.16-1.66A2.73,2.73,0,0,0,8.51,58C11.55,58,15.35,57.72,16.7,56.72Z"/><path class="cls-1" d="M42.32,95.41s2.34,2.33,2,3.55-8.6,11-9.6,14L32,111.43S36.19,98.39,42.32,95.41Z"/><path class="cls-13" d="M113.31,115.42c-3,.65-5.89.7-8-.17,0,0-1.12-11.1-7.52-17.21a7.11,7.11,0,0,1,1.1-2C102.53,98.78,115.35,108.78,113.31,115.42Z"/><path class="cls-1" d="M95.88,95.41s10.24,9.47,9.37,20.5c0,0-4.44,1.64-4.65,0S98,104.66,93.18,99C92.44,98.08,95.88,95.41,95.88,95.41Z"/></g></g></svg>